<?xml version="1.0" encoding="UTF-8" standalone="no"?>
<svg
   width="120mm"
   height="30mm"
   viewBox="0 0 120 30"
   version="1.1"
   id="svg8"
   inkscape:version="1.2.2 (b0a8486541, 2022-12-01)"
   sodipodi:docname="logo.svg"
   xmlns:inkscape="http://www.inkscape.org/namespaces/inkscape"
   xmlns:sodipodi="http://sodipodi.sourceforge.net/DTD/sodipodi-0.dtd"
   xmlns="http://www.w3.org/2000/svg"
   xmlns:svg="http://www.w3.org/2000/svg"
   xmlns:rdf="http://www.w3.org/1999/02/22-rdf-syntax-ns#"
   xmlns:cc="http://creativecommons.org/ns#"
   xmlns:dc="http://purl.org/dc/elements/1.1/">
  <style
     id="style2">
    path {
        fill: black;
    }
    @media (prefers-color-scheme: dark) {
        path { fill: white;
        }
    }
    #g190 * {
            stroke:black;
    }

    @media (prefers-color-scheme: dark) {
         #g190 * {
            stroke:white !important;
        }
    }
  </style>
  <defs
     id="defs2">
    <marker
       style="overflow:visible"
       id="marker1125"
       refX="0"
       refY="0"
       orient="auto"
       inkscape:stockid="Arrow1Lstart"
       inkscape:isstock="true">
      <path
         transform="matrix(0.8,0,0,0.8,10,0)"
         style="fill-rule:evenodd;stroke-width:1pt"
         d="M 0,0 5,-5 -12.5,0 5,5 Z"
         id="path1123" />
    </marker>
    <marker
       style="overflow:visible"
       id="Arrow1Lstart"
       refX="0"
       refY="0"
       orient="auto"
       inkscape:stockid="Arrow1Lstart"
       inkscape:isstock="true">
      <path
         transform="matrix(0.8,0,0,0.8,10,0)"
         style="fill-rule:evenodd;stroke-width:1pt"
         d="M 0,0 5,-5 -12.5,0 5,5 Z"
         id="path853" />
    </marker>
  </defs>
  <sodipodi:namedview
     id="base"
     pagecolor="#ffffff"
     bordercolor="#666666"
     borderopacity="1.0"
     inkscape:pageopacity="0.0"
     inkscape:pageshadow="2"
     inkscape:zoom="2"
     inkscape:cx="119.25"
     inkscape:cy="28.25"
     inkscape:document-units="mm"
     inkscape:current-layer="g190"
     inkscape:document-rotation="0"
     showgrid="false"
     showguides="false"
     inkscape:window-width="1920"
     inkscape:window-height="1056"
     inkscape:window-x="1080"
     inkscape:window-y="405"
     inkscape:window-maximized="1"
     inkscape:showpageshadow="2"
     inkscape:pagecheckerboard="0"
     inkscape:deskcolor="#d1d1d1" />
  <metadata
     id="metadata5">
    <rdf:RDF>
      <cc:Work
         rdf:about="">
        <dc:format>image/svg+xml</dc:format>
        <dc:type
           rdf:resource="http://purl.org/dc/dcmitype/StillImage" />
      </cc:Work>
    </rdf:RDF>
  </metadata>
  <g
     inkscape:label="Ebene 1"
     inkscape:groupmode="layer"
     id="layer1">
    <g
       aria-label=" ( "
       id="text835"
       style="font-size:10.5833px;line-height:125%;font-family:'Arundina Sans Mono';-inkscape-font-specification:'Arundina Sans Mono, Normal';letter-spacing:0px;word-spacing:0px;stroke-width:0.264583px">
      <path
         d="m 101.59155,5.9936328 q -1.36942,2.325432 -1.36942,4.6973732 0,2.330599 1.36942,4.738713 h -0.82682 q -0.790649,-1.250565 -1.167886,-2.408114 -0.372069,-1.157548 -0.372069,-2.330599 0,-2.2944268 1.539955,-4.6973732 z"
         id="path281" />
    </g>
    <g
       id="g190">
      <g
         id="g849"
         transform="translate(55.695416,-50.74781)"
         style="fill:#008080;fill-opacity:1;stroke-width:1;stroke-linecap:butt;stroke-linejoin:round;stroke-miterlimit:4;stroke-dasharray:none;stroke-opacity:1;paint-order:markers stroke fill;stroke:#000000">
        <path
           id="path841"
           style="fill:#008080;fill-opacity:1;fill-rule:evenodd;stroke-width:2.30173;stroke-linecap:square;stroke-linejoin:round;stroke-miterlimit:4;stroke-dasharray:none;stroke-opacity:1;paint-order:normal;stroke:#000000"
           d="m 194.55469,216.63672 -4.28321,5.40039 -11.02343,-0.0215 0.084,24.68946 h 20.2207 20.21875 l 0.0859,-24.68946 -11.02539,0.0215 -4.28125,-5.40039 -4.99805,0.0215 z"
           transform="matrix(0.26458333,0,0,0.26458333,0.0165841,0.158322)" />
      </g>
      <ellipse
         style="fill:#bebebe;fill-opacity:1;fill-rule:evenodd;stroke-width:0.608542;stroke-linecap:butt;stroke-linejoin:round;stroke-miterlimit:4;stroke-dasharray:none;stroke-dashoffset:0;stroke-opacity:1;stroke:#000000"
         id="path843"
         cx="108.51023"
         cy="11.274511"
         rx="1.7783529"
         ry="1.7783531" />
    </g>
    <g
       aria-label=" ( "
       transform="scale(-1,1)"
       id="use851"
       style="font-size:10.5833px;line-height:125%;font-family:'Arundina Sans Mono';-inkscape-font-specification:'Arundina Sans Mono, Normal';letter-spacing:0px;word-spacing:0px;stroke-width:0.264583px">
      <path
         d="m -115.42889,5.9936326 q -1.36942,2.325432 -1.36942,4.6973724 0,2.3306 1.36942,4.738714 h -0.82682 q -0.79065,-1.250566 -1.16788,-2.408114 -0.37207,-1.157548 -0.37207,-2.3306 0,-2.294426 1.53995,-4.6973724 z"
         id="path277" />
    </g>
    <g
       aria-label="inline-snapshot"
       id="text1156"
       style="font-size:10.5833px;line-height:125%;font-family:'Arundina Sans Mono';-inkscape-font-specification:'Arundina Sans Mono, Normal';letter-spacing:0px;word-spacing:0px;stroke-width:0.264583px">
      <path
         d="M 5.8289046,8.9918953 V 14.040667 H 7.720256 v 0.73897 H 3.012548 v -0.73897 H 4.8832289 V 9.7256983 H 3.4104553 v -0.733803 z m 0,-2.2634205 V 7.9376995 H 4.8832289 V 6.7284748 Z"
         id="path301" />
      <path
         d="m 13.890402,14.779637 h -0.966346 v -3.596668 q 0,-1.5089469 -1.121375,-1.5089469 -0.666624,0 -1.028357,0.4702539 -0.361734,0.465087 -0.361734,1.353918 v 3.281443 H 9.4720816 V 8.9918953 H 10.41259 V 9.854889 q 0.516762,-1.0025196 1.725987,-1.0025196 1.751825,0 1.751825,2.3305996 z"
         id="path303" />
      <path
         d="m 18.143359,12.671246 q 0,1.302242 0.935341,1.302242 h 1.105872 v 0.806149 h -1.21956 q -0.852658,0 -1.322912,-0.5426 -0.465087,-0.542601 -0.465087,-1.565791 V 7.4157692 h -1.52445 V 6.6767986 h 2.490796 z"
         id="path305" />
      <path
         d="m 24.959459,8.9918953 v 5.0487717 h 1.891351 v 0.73897 h -4.707708 v -0.73897 h 1.870681 V 9.7256983 h -1.472774 v -0.733803 z m 0,-2.2634205 V 7.9376995 H 24.013783 V 6.7284748 Z"
         id="path307" />
      <path
         d="m 33.020957,14.779637 h -0.966346 v -3.596668 q 0,-1.5089469 -1.121375,-1.5089469 -0.666624,0 -1.028358,0.4702539 -0.361734,0.465087 -0.361734,1.353918 v 3.281443 H 28.602636 V 8.9918953 h 0.940508 V 9.854889 q 0.516763,-1.0025196 1.725988,-1.0025196 1.751825,0 1.751825,2.3305996 z"
         id="path309" />
      <path
         d="m 39.718202,12.11831 h -4.128934 v 0.03101 q 0,0.945676 0.490925,1.462439 0.490924,0.516762 1.410762,0.516762 0.904335,0 1.994704,-0.589109 v 0.940508 q -1.105872,0.454751 -2.015375,0.454751 -1.333247,0 -2.103224,-0.80615 -0.769976,-0.821652 -0.769976,-2.24275 0,-1.405594 0.749306,-2.2117439 0.723468,-0.8216527 1.979201,-0.8216527 1.105872,0 1.74149,0.7389707 0.651121,0.7544739 0.651121,2.0463799 z m -0.950843,-0.754474 q -0.05168,-1.7053168 -1.472774,-1.7053168 -0.702797,0 -1.142045,0.4547508 -0.434081,0.434081 -0.521931,1.266069 z"
         id="path311" />
      <path
         d="m 44.875492,11.446518 v 0.857826 h -2.697501 v -0.857826 z"
         id="path313" />
      <path
         d="m 51.748438,10.11327 q -0.800982,-0.4702537 -1.669143,-0.4702537 -1.276404,0 -1.276404,0.8371557 0,0.403075 0.222208,0.583942 0.248046,0.206705 1.198889,0.382404 l 0.387572,0.07235 q 1.436601,0.263549 1.436601,1.576126 0,0.878497 -0.614948,1.348751 -0.635618,0.490924 -1.705317,0.490924 -0.821652,0 -1.906854,-0.366901 v -0.976682 q 1.033525,0.537433 1.927525,0.537433 1.333248,0 1.333248,-0.961178 0,-0.666624 -1.266069,-0.930173 h -0.05168 l -0.351399,-0.06718 q -0.837155,-0.165364 -1.209225,-0.542601 -0.366901,-0.377237 -0.366901,-1.033525 0,-0.8474911 0.558104,-1.291907 0.563271,-0.4495836 1.617467,-0.4495836 0.91467,0 1.736322,0.3358958 z"
         id="path315" />
      <path
         d="m 58.528363,14.779637 h -0.966346 v -3.596668 q 0,-1.5089469 -1.121375,-1.5089469 -0.666624,0 -1.028358,0.4702539 -0.361733,0.465087 -0.361733,1.353918 v 3.281443 H 54.110043 V 8.9918953 h 0.940508 V 9.854889 q 0.516762,-1.0025196 1.725987,-1.0025196 1.751825,0 1.751825,2.3305996 z"
         id="path317" />
      <path
         d="m 62.781319,11.870263 q -1.658808,0 -1.658808,1.152381 0,0.532266 0.299722,0.821653 0.30489,0.284219 0.873329,0.284219 0.80615,0 1.24023,-0.537433 0.454752,-0.568439 0.454752,-1.508947 v -0.211873 h -0.888832 z m 2.160068,2.909374 h -0.950843 v -0.857826 q -0.58911,1.012855 -1.891352,1.012855 -0.873329,0 -1.421097,-0.506427 -0.52193,-0.506428 -0.52193,-1.333248 0,-1.979201 2.557975,-1.979201 h 1.276404 v -0.139526 q 0,-0.702797 -0.351399,-1.0076872 -0.351399,-0.3100576 -1.105872,-0.3100576 -0.976682,0 -1.958531,0.5426008 V 9.2554443 q 1.033526,-0.4030749 1.958531,-0.4030749 1.421097,0 2.056715,0.8423232 0.170532,0.2480461 0.28422,0.6511214 0.03101,0.186034 0.04651,0.470254 0.02067,0.279051 0.02067,0.651121 z"
         id="path319" />
      <path
         d="M 67.788752,16.991382 H 66.832741 V 8.9918953 h 0.956011 v 0.733803 q 0.480589,-0.8733289 1.550288,-0.8733289 1.04386,0 1.643305,0.8061498 0.599445,0.8423228 0.599445,2.2427498 0,1.390092 -0.599445,2.227247 -0.614947,0.80615 -1.643305,0.80615 -1.085202,0 -1.550288,-0.893999 z m 2.790518,-5.105616 q 0,-2.2272468 -1.384924,-2.2272468 -1.405594,0 -1.405594,2.2272468 0,2.24275 1.405594,2.24275 1.384924,0 1.384924,-2.24275 z"
         id="path321" />
      <path
         d="m 77.255847,10.11327 q -0.800983,-0.4702537 -1.669144,-0.4702537 -1.276404,0 -1.276404,0.8371557 0,0.403075 0.222208,0.583942 0.248046,0.206705 1.19889,0.382404 l 0.387572,0.07235 q 1.4366,0.263549 1.4366,1.576126 0,0.878497 -0.614948,1.348751 -0.635618,0.490924 -1.705317,0.490924 -0.821652,0 -1.906854,-0.366901 v -0.976682 q 1.033526,0.537433 1.927525,0.537433 1.333248,0 1.333248,-0.961178 0,-0.666624 -1.266069,-0.930173 h -0.05168 l -0.351399,-0.06718 q -0.837155,-0.165364 -1.209224,-0.542601 -0.366902,-0.377237 -0.366902,-1.033525 0,-0.8474911 0.558104,-1.291907 0.563271,-0.4495836 1.617467,-0.4495836 0.91467,0 1.736323,0.3358958 z"
         id="path323" />
      <path
         d="m 84.035768,14.779637 h -0.966346 v -3.596668 q 0,-1.5089469 -1.121375,-1.5089469 -0.666624,0 -1.028358,0.4702539 -0.361734,0.465087 -0.361734,1.353918 v 3.281443 H 79.617447 V 6.7284748 h 0.940508 V 9.854889 q 0.516763,-1.0025196 1.725987,-1.0025196 1.751826,0 1.751826,2.3305996 z"
         id="path325" />
      <path
         d="m 88.169872,9.6585192 q -1.472774,0 -1.472774,2.2272468 0,2.24275 1.472774,2.24275 1.472773,0 1.472773,-2.24275 0,-2.2272468 -1.472773,-2.2272468 z m 0,-0.8061498 q 1.209224,0 1.839675,0.775144 0.635618,0.7699766 0.635618,2.2582526 0,1.488277 -0.635618,2.268588 -0.630451,0.780312 -1.839675,0.780312 -1.214393,0 -1.855178,-0.780312 -0.635618,-0.780311 -0.635618,-2.268588 0,-1.488276 0.635618,-2.2582526 0.640785,-0.775144 1.855178,-0.775144 z"
         id="path327" />
      <path
         d="m 94.531223,8.9918953 h 2.1549 v 0.733803 h -2.1549 v 3.1419167 q 0,0.60978 0.237711,0.894 0.248046,0.263549 0.84749,0.263549 h 1.069699 v 0.754473 h -1.162716 q -1.043861,0 -1.508947,-0.418577 -0.434081,-0.439249 -0.434081,-1.493445 V 9.7256983 h -1.539952 v -0.733803 h 1.539952 V 7.34859 h 0.950844 z"
         id="path329" />
    </g>
    <g
       aria-label="create and update inline snapshots in your python code.  "
       id="text1160"
       style="font-size:3.88056px;line-height:125%;font-family:Sans;letter-spacing:0px;word-spacing:0px;stroke-width:0.264583px">
      <path
         d="m 10.081091,24.246356 q -0.2755193,0 -0.4928306,-0.112537 -0.2134308,-0.112536 -0.3376087,-0.34925 -0.1202974,-0.236714 -0.1202974,-0.605367 0,-0.384176 0.1280585,-0.62477 0.1280585,-0.240595 0.3453698,-0.353131 0.2211919,-0.112537 0.5005924,-0.112537 0.159103,0 0.306564,0.03492 0.147461,0.03105 0.240595,0.07761 l -0.104775,0.28328 q -0.09313,-0.03492 -0.217312,-0.06597 -0.124178,-0.03104 -0.232833,-0.03104 -0.6131287,0 -0.6131287,0.787754 0,0.376414 0.1474612,0.578204 0.1513419,0.197908 0.4462645,0.197908 0.170745,0 0.298803,-0.03493 0.131939,-0.03493 0.240595,-0.08537 v 0.302683 q -0.104775,0.05433 -0.232834,0.08149 -0.124178,0.03104 -0.302684,0.03104 z"
         id="path206" />
      <path
         d="m 12.079578,22.088764 q 0.05821,0 0.124178,0.0078 0.06985,0.0039 0.120297,0.01552 l -0.04269,0.314325 q -0.05045,-0.01164 -0.112536,-0.0194 -0.05821,-0.0078 -0.112536,-0.0078 -0.159103,0 -0.298803,0.08925 -0.139701,0.08537 -0.225073,0.244475 -0.08149,0.155223 -0.08149,0.364773 v 1.10984 h -0.341489 v -2.07998 h 0.2794 l 0.03881,0.380295 h 0.01552 q 0.100895,-0.170745 0.259998,-0.294923 0.159103,-0.124178 0.376414,-0.124178 z"
         id="path208" />
      <path
         d="m 13.437773,22.088764 q 0.267758,0 0.457906,0.116417 0.194028,0.116417 0.294922,0.329848 0.104776,0.20955 0.104776,0.492831 v 0.20567 h -1.424166 q 0.0078,0.35313 0.178506,0.539397 0.174625,0.182387 0.48507,0.182387 0.197908,0 0.34925,-0.03493 0.155223,-0.03881 0.318206,-0.108656 v 0.298803 q -0.159103,0.06985 -0.314325,0.100895 -0.155223,0.03492 -0.368653,0.03492 -0.294923,0 -0.523876,-0.120298 -0.225072,-0.120297 -0.353131,-0.357011 -0.124178,-0.240595 -0.124178,-0.585965 0,-0.341489 0.112536,-0.585964 0.116417,-0.244476 0.322087,-0.376415 0.20955,-0.131939 0.48507,-0.131939 z m -0.0039,0.279401 q -0.244475,0 -0.388056,0.159103 -0.1397,0.155222 -0.166864,0.434622 h 1.059393 q -0.0039,-0.263878 -0.124178,-0.426861 -0.120297,-0.166864 -0.380295,-0.166864 z"
         id="path210" />
      <path
         d="m 15.610883,22.092645 q 0.380295,0 0.562681,0.166864 0.182387,0.166864 0.182387,0.531637 v 1.416404 h -0.248356 l -0.06597,-0.294923 h -0.01552 q -0.13582,0.170745 -0.287161,0.252237 -0.147462,0.08149 -0.41134,0.08149 -0.283281,0 -0.469548,-0.147462 -0.186266,-0.151341 -0.186266,-0.469547 0,-0.310445 0.244475,-0.477309 0.244475,-0.170745 0.752828,-0.186267 l 0.353131,-0.01164 v -0.124178 q 0,-0.259997 -0.112536,-0.360892 -0.112536,-0.100894 -0.318206,-0.100894 -0.162983,0 -0.310444,0.05045 -0.147462,0.04657 -0.27552,0.108656 l -0.104775,-0.256117 q 0.135819,-0.07373 0.322086,-0.124178 0.186267,-0.05433 0.388056,-0.05433 z m 0.100895,1.10984 q -0.388056,0.01552 -0.539398,0.124178 -0.147461,0.108656 -0.147461,0.306564 0,0.174625 0.104775,0.256117 0.108655,0.08149 0.275519,0.08149 0.263878,0 0.438504,-0.143581 0.174625,-0.147461 0.174625,-0.450145 v -0.186267 z"
         id="path212" />
      <path
         d="m 17.694747,23.966955 q 0.07761,0 0.159103,-0.01164 0.08149,-0.01552 0.131939,-0.03105 v 0.259998 q -0.05433,0.02716 -0.155223,0.04269 -0.100894,0.0194 -0.194028,0.0194 -0.162983,0 -0.302683,-0.05433 -0.13582,-0.05821 -0.221192,-0.197909 -0.08537,-0.1397 -0.08537,-0.391936 v -1.210735 h -0.294923 v -0.162984 l 0.298803,-0.135819 0.13582,-0.442384 h 0.201789 v 0.477309 h 0.601487 v 0.263878 H 17.36878 v 1.202974 q 0,0.190147 0.08925,0.28328 0.09313,0.08925 0.236714,0.08925 z"
         id="path214" />
      <path
         d="m 19.204285,22.088764 q 0.267758,0 0.457906,0.116417 0.194028,0.116417 0.294922,0.329848 0.104776,0.20955 0.104776,0.492831 v 0.20567 h -1.424166 q 0.0078,0.35313 0.178506,0.539397 0.174625,0.182387 0.48507,0.182387 0.197908,0 0.34925,-0.03493 0.155223,-0.03881 0.318206,-0.108656 v 0.298803 q -0.159103,0.06985 -0.314325,0.100895 -0.155223,0.03492 -0.368653,0.03492 -0.294923,0 -0.523876,-0.120298 -0.225073,-0.120297 -0.353131,-0.357011 -0.124178,-0.240595 -0.124178,-0.585965 0,-0.341489 0.112536,-0.585964 0.116417,-0.244476 0.322087,-0.376415 0.20955,-0.131939 0.48507,-0.131939 z m -0.0039,0.279401 q -0.244475,0 -0.388056,0.159103 -0.1397,0.155222 -0.166864,0.434622 h 1.059393 q -0.0039,-0.263878 -0.124178,-0.426861 -0.120297,-0.166864 -0.380295,-0.166864 z"
         id="path216" />
      <path
         d="m 22.386342,22.092645 q 0.380295,0 0.562681,0.166864 0.182386,0.166864 0.182386,0.531637 v 1.416404 h -0.248355 l -0.06597,-0.294923 h -0.01552 q -0.13582,0.170745 -0.287162,0.252237 -0.147461,0.08149 -0.411339,0.08149 -0.283281,0 -0.469548,-0.147462 -0.186267,-0.151341 -0.186267,-0.469547 0,-0.310445 0.244476,-0.477309 0.244475,-0.170745 0.752828,-0.186267 l 0.353131,-0.01164 v -0.124178 q 0,-0.259997 -0.112536,-0.360892 -0.112536,-0.100894 -0.318206,-0.100894 -0.162983,0 -0.310445,0.05045 -0.147461,0.04657 -0.275519,0.108656 l -0.104776,-0.256117 q 0.13582,-0.07373 0.322087,-0.124178 0.186267,-0.05433 0.388056,-0.05433 z m 0.100894,1.10984 q -0.388056,0.01552 -0.539397,0.124178 -0.147462,0.108656 -0.147462,0.306564 0,0.174625 0.104775,0.256117 0.108656,0.08149 0.27552,0.08149 0.263878,0 0.438504,-0.143581 0.174625,-0.147461 0.174625,-0.450145 v -0.186267 z"
         id="path218" />
      <path
         d="m 24.77677,22.088764 q 0.372534,0 0.562681,0.182387 0.190148,0.178505 0.190148,0.582084 V 24.20755 H 25.19199 v -1.331032 q 0,-0.500592 -0.465667,-0.500592 -0.34537,0 -0.477309,0.194028 -0.131939,0.194028 -0.131939,0.5588 v 1.078796 h -0.34149 v -2.07998 h 0.27552 l 0.05045,0.283281 h 0.0194 q 0.100895,-0.162984 0.279401,-0.240595 0.178505,-0.08149 0.376414,-0.08149 z"
         id="path220" />
      <path
         d="m 26.911078,24.246356 q -0.388056,0 -0.62089,-0.267759 -0.232834,-0.271639 -0.232834,-0.807156 0,-0.535518 0.232834,-0.807157 0.236714,-0.27552 0.62477,-0.27552 0.240595,0 0.391937,0.08925 0.155222,0.08925 0.252236,0.217312 h 0.02328 q -0.0039,-0.05045 -0.01552,-0.147462 -0.0078,-0.100894 -0.0078,-0.159103 v -0.830439 h 0.341489 v 2.949225 h -0.275519 l -0.05045,-0.2794 h -0.01552 q -0.09313,0.131939 -0.248356,0.225072 -0.155222,0.09313 -0.399697,0.09313 z m 0.05433,-0.283281 q 0.329848,0 0.461787,-0.178506 0.13582,-0.182386 0.13582,-0.547159 v -0.06209 q 0,-0.388056 -0.128059,-0.593726 -0.128058,-0.20955 -0.473428,-0.20955 -0.27552,0 -0.41522,0.221192 -0.13582,0.217311 -0.13582,0.585965 0,0.372533 0.13582,0.578203 0.1397,0.20567 0.4191,0.20567 z"
         id="path222" />
      <path
         d="m 31.307753,22.12757 v 2.07998 h -0.279401 l -0.05045,-0.27552 h -0.01552 q -0.100895,0.162984 -0.2794,0.240595 -0.178506,0.07373 -0.380295,0.07373 -0.376415,0 -0.566562,-0.178506 -0.190148,-0.182386 -0.190148,-0.578204 V 22.12757 h 0.34537 v 1.338793 q 0,0.496712 0.461787,0.496712 0.34537,0 0.477309,-0.194028 0.135819,-0.194028 0.135819,-0.558801 V 22.12757 Z"
         id="path224" />
      <path
         d="m 32.95699,22.088764 q 0.384176,0 0.617009,0.267759 0.236715,0.267759 0.236715,0.807156 0,0.531637 -0.236715,0.807157 -0.232833,0.27552 -0.620889,0.27552 -0.240595,0 -0.399698,-0.08925 -0.155222,-0.09313 -0.244475,-0.213431 h -0.02328 q 0.0078,0.06597 0.01552,0.166864 0.0078,0.100895 0.0078,0.174625 v 0.853723 H 31.967448 V 22.12757 h 0.2794 l 0.04657,0.283281 h 0.01552 q 0.09313,-0.13582 0.244475,-0.228953 0.151342,-0.09313 0.403578,-0.09313 z m -0.06209,0.287162 q -0.318206,0 -0.450145,0.178506 -0.128058,0.178505 -0.135819,0.543278 v 0.06597 q 0,0.384176 0.124178,0.593726 0.128058,0.20567 0.469547,0.20567 0.190148,0 0.310445,-0.104775 0.124178,-0.104775 0.182387,-0.283281 0.06209,-0.182387 0.06209,-0.41522 0,-0.357012 -0.139701,-0.570442 -0.135819,-0.213431 -0.422981,-0.213431 z"
         id="path226" />
      <path
         d="m 35.091297,24.246356 q -0.388056,0 -0.620889,-0.267759 -0.232834,-0.271639 -0.232834,-0.807156 0,-0.535518 0.232834,-0.807157 0.236714,-0.27552 0.62477,-0.27552 0.240594,0 0.391936,0.08925 0.155223,0.08925 0.252237,0.217312 h 0.02328 q -0.0039,-0.05045 -0.01552,-0.147462 -0.0078,-0.100894 -0.0078,-0.159103 v -0.830439 h 0.341489 v 2.949225 h -0.27552 l -0.05045,-0.2794 h -0.01552 q -0.09313,0.131939 -0.248356,0.225072 -0.155223,0.09313 -0.399698,0.09313 z m 0.05433,-0.283281 q 0.329848,0 0.461787,-0.178506 0.135819,-0.182386 0.135819,-0.547159 v -0.06209 q 0,-0.388056 -0.128058,-0.593726 -0.128059,-0.20955 -0.473429,-0.20955 -0.275519,0 -0.415219,0.221192 -0.13582,0.217311 -0.13582,0.585965 0,0.372533 0.13582,0.578203 0.1397,0.20567 0.4191,0.20567 z"
         id="path228" />
      <path
         d="m 37.528288,22.092645 q 0.380295,0 0.562681,0.166864 0.182386,0.166864 0.182386,0.531637 v 1.416404 h -0.248356 l -0.06597,-0.294923 h -0.01552 q -0.13582,0.170745 -0.287162,0.252237 -0.147461,0.08149 -0.411339,0.08149 -0.283281,0 -0.469548,-0.147462 -0.186267,-0.151341 -0.186267,-0.469547 0,-0.310445 0.244476,-0.477309 0.244475,-0.170745 0.752828,-0.186267 l 0.353131,-0.01164 v -0.124178 q 0,-0.259997 -0.112536,-0.360892 -0.112536,-0.100894 -0.318206,-0.100894 -0.162984,0 -0.310445,0.05045 -0.147461,0.04657 -0.27552,0.108656 l -0.104775,-0.256117 q 0.13582,-0.07373 0.322087,-0.124178 0.186267,-0.05433 0.388056,-0.05433 z m 0.100894,1.10984 q -0.388056,0.01552 -0.539398,0.124178 -0.147461,0.108656 -0.147461,0.306564 0,0.174625 0.104775,0.256117 0.108656,0.08149 0.27552,0.08149 0.263878,0 0.438503,-0.143581 0.174626,-0.147461 0.174626,-0.450145 v -0.186267 z"
         id="path230" />
      <path
         d="m 39.612152,23.966955 q 0.07761,0 0.159103,-0.01164 0.08149,-0.01552 0.131939,-0.03105 v 0.259998 q -0.05433,0.02716 -0.155222,0.04269 -0.100895,0.0194 -0.194028,0.0194 -0.162983,0 -0.302684,-0.05433 -0.135819,-0.05821 -0.221192,-0.197909 -0.08537,-0.1397 -0.08537,-0.391936 v -1.210735 h -0.294922 v -0.162984 l 0.298803,-0.135819 0.135819,-0.442384 h 0.201789 v 0.477309 h 0.601487 v 0.263878 h -0.601487 v 1.202974 q 0,0.190147 0.08925,0.28328 0.09313,0.08925 0.236714,0.08925 z"
         id="path232" />
      <path
         d="m 41.121691,22.088764 q 0.267758,0 0.457906,0.116417 0.194028,0.116417 0.294922,0.329848 0.104776,0.20955 0.104776,0.492831 v 0.20567 h -1.424166 q 0.0078,0.35313 0.178506,0.539397 0.174625,0.182387 0.48507,0.182387 0.197908,0 0.34925,-0.03493 0.155223,-0.03881 0.318206,-0.108656 v 0.298803 q -0.159103,0.06985 -0.314325,0.100895 -0.155223,0.03492 -0.368653,0.03492 -0.294923,0 -0.523876,-0.120298 -0.225072,-0.120297 -0.353131,-0.357011 -0.124178,-0.240595 -0.124178,-0.585965 0,-0.341489 0.112536,-0.585964 0.116417,-0.244476 0.322087,-0.376415 0.20955,-0.131939 0.48507,-0.131939 z m -0.0039,0.279401 q -0.244475,0 -0.388056,0.159103 -0.1397,0.155222 -0.166864,0.434622 h 1.059393 q -0.0039,-0.263878 -0.124178,-0.426861 -0.120297,-0.166864 -0.380295,-0.166864 z"
         id="path234" />
      <path
         d="m 43.690619,21.347577 q 0.07761,0 0.135819,0.05433 0.06209,0.05045 0.06209,0.162984 0,0.108655 -0.06209,0.162983 -0.05821,0.05433 -0.135819,0.05433 -0.08537,0 -0.143581,-0.05433 -0.05821,-0.05433 -0.05821,-0.162983 0,-0.112536 0.05821,-0.162984 0.05821,-0.05433 0.143581,-0.05433 z m 0.166864,0.779993 v 2.07998 h -0.34149 v -2.07998 z"
         id="path236" />
      <path
         d="m 45.51836,22.088764 q 0.372534,0 0.562682,0.182387 0.190147,0.178505 0.190147,0.582084 V 24.20755 H 45.93358 v -1.331032 q 0,-0.500592 -0.465667,-0.500592 -0.34537,0 -0.477309,0.194028 -0.131939,0.194028 -0.131939,0.5588 v 1.078796 h -0.341489 v -2.07998 h 0.27552 l 0.05045,0.283281 h 0.0194 q 0.100894,-0.162984 0.2794,-0.240595 0.178506,-0.08149 0.376414,-0.08149 z"
         id="path238" />
      <path
         d="m 47.256851,24.20755 h -0.341489 v -2.949225 h 0.341489 z"
         id="path240" />
      <path
         d="m 48.091169,21.347577 q 0.07761,0 0.13582,0.05433 0.06209,0.05045 0.06209,0.162984 0,0.108655 -0.06209,0.162983 -0.05821,0.05433 -0.13582,0.05433 -0.08537,0 -0.14358,-0.05433 -0.05821,-0.05433 -0.05821,-0.162983 0,-0.112536 0.05821,-0.162984 0.05821,-0.05433 0.14358,-0.05433 z m 0.166864,0.779993 v 2.07998 h -0.341489 v -2.07998 z"
         id="path242" />
      <path
         d="m 49.918911,22.088764 q 0.372534,0 0.562681,0.182387 0.190148,0.178505 0.190148,0.582084 v 1.354315 h -0.337609 v -1.331032 q 0,-0.500592 -0.465667,-0.500592 -0.34537,0 -0.477309,0.194028 -0.131939,0.194028 -0.131939,0.5588 v 1.078796 h -0.341489 v -2.07998 h 0.27552 l 0.05045,0.283281 h 0.0194 q 0.100894,-0.162984 0.2794,-0.240595 0.178506,-0.08149 0.376414,-0.08149 z"
         id="path244" />
      <path
         d="m 52.119188,22.088764 q 0.267759,0 0.457906,0.116417 0.194028,0.116417 0.294923,0.329848 0.104775,0.20955 0.104775,0.492831 v 0.20567 h -1.424165 q 0.0078,0.35313 0.178505,0.539397 0.174626,0.182387 0.48507,0.182387 0.197909,0 0.349251,-0.03493 0.155222,-0.03881 0.318206,-0.108656 v 0.298803 q -0.159103,0.06985 -0.314326,0.100895 -0.155222,0.03492 -0.368653,0.03492 -0.294922,0 -0.523875,-0.120298 -0.225073,-0.120297 -0.353131,-0.357011 -0.124178,-0.240595 -0.124178,-0.585965 0,-0.341489 0.112536,-0.585964 0.116417,-0.244476 0.322086,-0.376415 0.209551,-0.131939 0.48507,-0.131939 z m -0.0039,0.279401 q -0.244475,0 -0.388056,0.159103 -0.1397,0.155222 -0.166864,0.434622 h 1.059393 q -0.0039,-0.263878 -0.124178,-0.426861 -0.120298,-0.166864 -0.380295,-0.166864 z"
         id="path246" />
      <path
         d="m 55.867806,23.633227 q 0,0.302684 -0.225072,0.457906 -0.225073,0.155223 -0.605367,0.155223 -0.217312,0 -0.376415,-0.03492 -0.155222,-0.03493 -0.27552,-0.09701 v -0.310445 q 0.124178,0.06209 0.298804,0.116417 0.178505,0.05045 0.360892,0.05045 0.259997,0 0.376414,-0.08149 0.116417,-0.08537 0.116417,-0.225072 0,-0.07761 -0.04269,-0.1397 -0.04269,-0.06209 -0.155223,-0.124178 -0.108655,-0.06209 -0.314325,-0.139701 -0.201789,-0.07761 -0.34537,-0.155222 -0.143581,-0.07761 -0.221192,-0.186267 -0.07761,-0.108656 -0.07761,-0.2794 0,-0.263878 0.213431,-0.407459 0.217311,-0.143581 0.566561,-0.143581 0.190148,0 0.353131,0.03881 0.166864,0.03493 0.310445,0.100894 l -0.116417,0.27164 q -0.131939,-0.05433 -0.275519,-0.09313 -0.143581,-0.0388 -0.294923,-0.0388 -0.20955,0 -0.322086,0.06985 -0.108656,0.06597 -0.108656,0.182386 0,0.08537 0.05045,0.147461 0.05045,0.05821 0.166864,0.116417 0.120298,0.05433 0.318206,0.131939 0.197909,0.07373 0.337609,0.151342 0.1397,0.07761 0.213431,0.190147 0.07373,0.108656 0.07373,0.27552 z"
         id="path248" />
      <path
         d="m 57.373463,22.088764 q 0.372534,0 0.562681,0.182387 0.190148,0.178505 0.190148,0.582084 v 1.354315 h -0.337609 v -1.331032 q 0,-0.500592 -0.465667,-0.500592 -0.34537,0 -0.477309,0.194028 -0.131939,0.194028 -0.131939,0.5588 v 1.078796 h -0.34149 v -2.07998 h 0.27552 l 0.05045,0.283281 h 0.0194 q 0.100895,-0.162984 0.279401,-0.240595 0.178505,-0.08149 0.376414,-0.08149 z"
         id="path250" />
      <path
         d="m 59.558222,22.092645 q 0.380295,0 0.562681,0.166864 0.182386,0.166864 0.182386,0.531637 v 1.416404 h -0.248356 l -0.06597,-0.294923 h -0.01552 q -0.13582,0.170745 -0.287162,0.252237 -0.147461,0.08149 -0.411339,0.08149 -0.283281,0 -0.469548,-0.147462 -0.186267,-0.151341 -0.186267,-0.469547 0,-0.310445 0.244475,-0.477309 0.244476,-0.170745 0.752829,-0.186267 l 0.353131,-0.01164 v -0.124178 q 0,-0.259997 -0.112536,-0.360892 -0.112536,-0.100894 -0.318206,-0.100894 -0.162984,0 -0.310445,0.05045 -0.147461,0.04657 -0.27552,0.108656 l -0.104775,-0.256117 q 0.13582,-0.07373 0.322087,-0.124178 0.186267,-0.05433 0.388056,-0.05433 z m 0.100894,1.10984 q -0.388056,0.01552 -0.539398,0.124178 -0.147461,0.108656 -0.147461,0.306564 0,0.174625 0.104775,0.256117 0.108656,0.08149 0.27552,0.08149 0.263878,0 0.438503,-0.143581 0.174625,-0.147461 0.174625,-0.450145 v -0.186267 z"
         id="path252" />
      <path
         d="m 61.937005,22.088764 q 0.384176,0 0.617009,0.267759 0.236714,0.267759 0.236714,0.807156 0,0.531637 -0.236714,0.807157 -0.232833,0.27552 -0.620889,0.27552 -0.240595,0 -0.399698,-0.08925 -0.155223,-0.09313 -0.244475,-0.213431 h -0.02328 q 0.0078,0.06597 0.01552,0.166864 0.0078,0.100895 0.0078,0.174625 v 0.853723 h -0.34149 V 22.12757 h 0.279401 l 0.04657,0.283281 h 0.01552 q 0.09313,-0.13582 0.244475,-0.228953 0.151342,-0.09313 0.403578,-0.09313 z m -0.06209,0.287162 q -0.318206,0 -0.450145,0.178506 -0.128058,0.178505 -0.135819,0.543278 v 0.06597 q 0,0.384176 0.124178,0.593726 0.128058,0.20567 0.469547,0.20567 0.190148,0 0.310445,-0.104775 0.124178,-0.104775 0.182386,-0.283281 0.06209,-0.182387 0.06209,-0.41522 0,-0.357012 -0.1397,-0.570442 -0.135819,-0.213431 -0.422981,-0.213431 z"
         id="path254" />
      <path
         d="m 64.688321,23.633227 q 0,0.302684 -0.225072,0.457906 -0.225073,0.155223 -0.605368,0.155223 -0.217311,0 -0.376414,-0.03492 -0.155223,-0.03493 -0.27552,-0.09701 v -0.310445 q 0.124178,0.06209 0.298803,0.116417 0.178506,0.05045 0.360892,0.05045 0.259998,0 0.376415,-0.08149 0.116416,-0.08537 0.116416,-0.225072 0,-0.07761 -0.04269,-0.1397 -0.04269,-0.06209 -0.155222,-0.124178 -0.108656,-0.06209 -0.314325,-0.139701 -0.20179,-0.07761 -0.34537,-0.155222 -0.143581,-0.07761 -0.221192,-0.186267 -0.07761,-0.108656 -0.07761,-0.2794 0,-0.263878 0.21343,-0.407459 0.217312,-0.143581 0.566562,-0.143581 0.190148,0 0.353131,0.03881 0.166864,0.03493 0.310445,0.100894 l -0.116417,0.27164 q -0.131939,-0.05433 -0.27552,-0.09313 -0.14358,-0.0388 -0.294922,-0.0388 -0.20955,0 -0.322087,0.06985 -0.108655,0.06597 -0.108655,0.182386 0,0.08537 0.05045,0.147461 0.05045,0.05821 0.166864,0.116417 0.120297,0.05433 0.318206,0.131939 0.197908,0.07373 0.337609,0.151342 0.1397,0.07761 0.21343,0.190147 0.07373,0.108656 0.07373,0.27552 z"
         id="path256" />
      <path
         d="m 65.534286,22.123689 q 0,0.155223 -0.0194,0.291042 h 0.02328 q 0.100894,-0.159103 0.271639,-0.240594 0.174625,-0.08149 0.376414,-0.08149 0.380295,0 0.570443,0.182386 0.190147,0.178506 0.190147,0.578204 v 1.354315 h -0.337609 v -1.331032 q 0,-0.500592 -0.465667,-0.500592 -0.34925,0 -0.481189,0.197908 -0.128059,0.194028 -0.128059,0.558801 v 1.074915 h -0.341489 v -2.949225 h 0.341489 z"
         id="path258" />
      <path
         d="m 69.399324,23.163679 q 0,0.516115 -0.263878,0.799396 -0.259998,0.283281 -0.706262,0.283281 -0.27552,0 -0.492831,-0.124178 -0.213431,-0.128059 -0.337609,-0.368653 -0.124178,-0.244476 -0.124178,-0.589846 0,-0.516114 0.259997,-0.795514 0.259998,-0.279401 0.706262,-0.279401 0.283281,0 0.496712,0.128059 0.217311,0.124178 0.337609,0.364772 0.124178,0.236715 0.124178,0.582084 z m -1.571627,0 q 0,0.368654 0.143581,0.585965 0.147461,0.213431 0.465667,0.213431 0.314325,0 0.461786,-0.213431 0.147462,-0.217311 0.147462,-0.585965 0,-0.368653 -0.147462,-0.578203 -0.147461,-0.20955 -0.465667,-0.20955 -0.318206,0 -0.461786,0.20955 -0.143581,0.20955 -0.143581,0.578203 z"
         id="path260" />
      <path
         d="m 70.633339,23.966955 q 0.07761,0 0.159103,-0.01164 0.08149,-0.01552 0.131939,-0.03105 v 0.259998 q -0.05433,0.02716 -0.155222,0.04269 -0.100895,0.0194 -0.194028,0.0194 -0.162984,0 -0.302684,-0.05433 -0.135819,-0.05821 -0.221192,-0.197909 -0.08537,-0.1397 -0.08537,-0.391936 V 22.391448 H 69.67096 v -0.162984 l 0.298804,-0.135819 0.135819,-0.442384 h 0.201789 v 0.477309 h 0.601487 v 0.263878 h -0.601487 v 1.202974 q 0,0.190147 0.08925,0.28328 0.09313,0.08925 0.236714,0.08925 z"
         id="path262" />
      <path
         d="m 72.693917,23.633227 q 0,0.302684 -0.225072,0.457906 -0.225073,0.155223 -0.605368,0.155223 -0.217311,0 -0.376414,-0.03492 -0.155222,-0.03493 -0.27552,-0.09701 v -0.310445 q 0.124178,0.06209 0.298803,0.116417 0.178506,0.05045 0.360892,0.05045 0.259998,0 0.376415,-0.08149 0.116417,-0.08537 0.116417,-0.225072 0,-0.07761 -0.04269,-0.1397 -0.04269,-0.06209 -0.155222,-0.124178 -0.108656,-0.06209 -0.314325,-0.139701 -0.201789,-0.07761 -0.34537,-0.155222 -0.143581,-0.07761 -0.221192,-0.186267 -0.07761,-0.108656 -0.07761,-0.2794 0,-0.263878 0.213431,-0.407459 0.217311,-0.143581 0.566561,-0.143581 0.190148,0 0.353131,0.03881 0.166864,0.03493 0.310445,0.100894 l -0.116417,0.27164 q -0.131939,-0.05433 -0.27552,-0.09313 -0.14358,-0.0388 -0.294922,-0.0388 -0.20955,0 -0.322087,0.06985 -0.108655,0.06597 -0.108655,0.182386 0,0.08537 0.05045,0.147461 0.05045,0.05821 0.166864,0.116417 0.120297,0.05433 0.318206,0.131939 0.197909,0.07373 0.337609,0.151342 0.1397,0.07761 0.213431,0.190147 0.07373,0.108656 0.07373,0.27552 z"
         id="path264" />
      <path
         d="m 74.38196,21.347577 q 0.07761,0 0.13582,0.05433 0.06209,0.05045 0.06209,0.162984 0,0.108655 -0.06209,0.162983 -0.05821,0.05433 -0.13582,0.05433 -0.08537,0 -0.143581,-0.05433 -0.05821,-0.05433 -0.05821,-0.162983 0,-0.112536 0.05821,-0.162984 0.05821,-0.05433 0.143581,-0.05433 z m 0.166864,0.779993 v 2.07998 h -0.341489 v -2.07998 z"
         id="path266" />
      <path
         d="m 76.209702,22.088764 q 0.372534,0 0.562681,0.182387 0.190147,0.178505 0.190147,0.582084 v 1.354315 h -0.337608 v -1.331032 q 0,-0.500592 -0.465667,-0.500592 -0.34537,0 -0.477309,0.194028 -0.131939,0.194028 -0.131939,0.5588 v 1.078796 h -0.34149 v -2.07998 h 0.27552 l 0.05045,0.283281 h 0.0194 q 0.100895,-0.162984 0.2794,-0.240595 0.178506,-0.08149 0.376415,-0.08149 z"
         id="path268" />
      <path
         d="m 78.289685,22.12757 h 0.364773 l 0.450145,1.183571 q 0.05821,0.155222 0.104775,0.298803 0.04657,0.1397 0.06985,0.267758 h 0.01552 q 0.02328,-0.09701 0.07373,-0.252236 0.05045,-0.159103 0.104775,-0.318206 l 0.422981,-1.17969 h 0.368653 l -0.896409,2.367141 q -0.108656,0.294923 -0.283281,0.469548 -0.170745,0.174625 -0.473428,0.174625 -0.09313,0 -0.162984,-0.01164 -0.06985,-0.0078 -0.120297,-0.0194 v -0.271639 q 0.04269,0.0078 0.100894,0.01552 0.06209,0.0078 0.128059,0.0078 0.178506,0 0.287161,-0.100894 0.112537,-0.100895 0.174626,-0.267759 l 0.108655,-0.27552 z"
         id="path270" />
      <path
         d="m 82.403081,23.163679 q 0,0.516115 -0.263878,0.799396 -0.259997,0.283281 -0.706262,0.283281 -0.27552,0 -0.492831,-0.124178 -0.213431,-0.128059 -0.337609,-0.368653 -0.124178,-0.244476 -0.124178,-0.589846 0,-0.516114 0.259998,-0.795514 0.259997,-0.279401 0.706262,-0.279401 0.283281,0 0.496711,0.128059 0.217312,0.124178 0.337609,0.364772 0.124178,0.236715 0.124178,0.582084 z m -1.571627,0 q 0,0.368654 0.143581,0.585965 0.147461,0.213431 0.465667,0.213431 0.314326,0 0.461787,-0.213431 0.147461,-0.217311 0.147461,-0.585965 0,-0.368653 -0.147461,-0.578203 -0.147461,-0.20955 -0.465667,-0.20955 -0.318206,0 -0.461787,0.20955 -0.143581,0.20955 -0.143581,0.578203 z"
         id="path272" />
      <path
         d="m 84.680964,22.12757 v 2.07998 h -0.279401 l -0.05045,-0.27552 h -0.01552 q -0.100895,0.162984 -0.279401,0.240595 -0.178505,0.07373 -0.380294,0.07373 -0.376415,0 -0.566562,-0.178506 -0.190148,-0.182386 -0.190148,-0.578204 V 22.12757 h 0.34537 v 1.338793 q 0,0.496712 0.461787,0.496712 0.34537,0 0.477309,-0.194028 0.135819,-0.194028 0.135819,-0.558801 V 22.12757 Z"
         id="path274" />
      <path
         d="m 86.310798,22.088764 q 0.05821,0 0.124178,0.0078 0.06985,0.0039 0.120298,0.01552 l -0.04269,0.314325 q -0.05045,-0.01164 -0.112537,-0.0194 -0.05821,-0.0078 -0.112536,-0.0078 -0.159103,0 -0.298803,0.08925 -0.1397,0.08537 -0.225073,0.244475 -0.08149,0.155223 -0.08149,0.364773 v 1.10984 h -0.34149 v -2.07998 h 0.279401 l 0.0388,0.380295 h 0.01552 q 0.100894,-0.170745 0.259997,-0.294923 0.159103,-0.124178 0.376414,-0.124178 z"
         id="path276" />
      <path
         d="m 88.941819,22.088764 q 0.384176,0 0.617009,0.267759 0.236714,0.267759 0.236714,0.807156 0,0.531637 -0.236714,0.807157 -0.232833,0.27552 -0.620889,0.27552 -0.240595,0 -0.399698,-0.08925 -0.155222,-0.09313 -0.244475,-0.213431 h -0.02328 q 0.0078,0.06597 0.01552,0.166864 0.0078,0.100895 0.0078,0.174625 v 0.853723 h -0.34149 V 22.12757 h 0.279401 l 0.04657,0.283281 h 0.01552 q 0.09313,-0.13582 0.244475,-0.228953 0.151342,-0.09313 0.403578,-0.09313 z m -0.06209,0.287162 q -0.318206,0 -0.450145,0.178506 -0.128058,0.178505 -0.135819,0.543278 v 0.06597 q 0,0.384176 0.124178,0.593726 0.128058,0.20567 0.469547,0.20567 0.190148,0 0.310445,-0.104775 0.124178,-0.104775 0.182387,-0.283281 0.06209,-0.182387 0.06209,-0.41522 0,-0.357012 -0.1397,-0.570442 -0.135819,-0.213431 -0.422981,-0.213431 z"
         id="path278" />
      <path
         d="m 89.935239,22.12757 h 0.364773 l 0.450144,1.183571 q 0.05821,0.155222 0.104776,0.298803 0.04657,0.1397 0.06985,0.267758 h 0.01552 q 0.02328,-0.09701 0.07373,-0.252236 0.05045,-0.159103 0.104775,-0.318206 l 0.422981,-1.17969 h 0.368653 l -0.896409,2.367141 q -0.108656,0.294923 -0.283281,0.469548 -0.170745,0.174625 -0.473429,0.174625 -0.09313,0 -0.162983,-0.01164 -0.06985,-0.0078 -0.120298,-0.0194 v -0.271639 q 0.04269,0.0078 0.100895,0.01552 0.06209,0.0078 0.128059,0.0078 0.178505,0 0.287161,-0.100894 0.112536,-0.100895 0.174625,-0.267759 l 0.108656,-0.27552 z"
         id="path280" />
      <path
         d="m 92.934914,23.966955 q 0.07761,0 0.159103,-0.01164 0.08149,-0.01552 0.131939,-0.03105 v 0.259998 q -0.05433,0.02716 -0.155222,0.04269 -0.100895,0.0194 -0.194028,0.0194 -0.162984,0 -0.302684,-0.05433 -0.13582,-0.05821 -0.221192,-0.197909 -0.08537,-0.1397 -0.08537,-0.391936 v -1.210735 h -0.294923 v -0.162984 l 0.298803,-0.135819 0.13582,-0.442384 h 0.201789 v 0.477309 h 0.601487 v 0.263878 h -0.601487 v 1.202974 q 0,0.190147 0.08925,0.28328 0.09313,0.08925 0.236714,0.08925 z"
         id="path282" />
      <path
         d="m 93.98267,22.123689 q 0,0.155223 -0.0194,0.291042 h 0.02328 q 0.100895,-0.159103 0.271639,-0.240594 0.174626,-0.08149 0.376415,-0.08149 0.380295,0 0.570442,0.182386 0.190147,0.178506 0.190147,0.578204 v 1.354315 h -0.337608 v -1.331032 q 0,-0.500592 -0.465668,-0.500592 -0.34925,0 -0.481189,0.197908 -0.128058,0.194028 -0.128058,0.558801 v 1.074915 h -0.34149 v -2.949225 h 0.34149 z"
         id="path284" />
      <path
         d="m 97.847707,23.163679 q 0,0.516115 -0.263878,0.799396 -0.259998,0.283281 -0.706262,0.283281 -0.27552,0 -0.492831,-0.124178 -0.213431,-0.128059 -0.337609,-0.368653 -0.124178,-0.244476 -0.124178,-0.589846 0,-0.516114 0.259998,-0.795514 0.259997,-0.279401 0.706262,-0.279401 0.283281,0 0.496711,0.128059 0.217312,0.124178 0.337609,0.364772 0.124178,0.236715 0.124178,0.582084 z m -1.571627,0 q 0,0.368654 0.143581,0.585965 0.147461,0.213431 0.465667,0.213431 0.314325,0 0.461787,-0.213431 0.147461,-0.217311 0.147461,-0.585965 0,-0.368653 -0.147461,-0.578203 -0.147462,-0.20955 -0.465667,-0.20955 -0.318206,0 -0.461787,0.20955 -0.143581,0.20955 -0.143581,0.578203 z"
         id="path286" />
      <path
         d="m 99.388283,22.088764 q 0.372534,0 0.562681,0.182387 0.190146,0.178505 0.190146,0.582084 v 1.354315 h -0.337607 v -1.331032 q 0,-0.500592 -0.465667,-0.500592 -0.34537,0 -0.477309,0.194028 -0.131939,0.194028 -0.131939,0.5588 v 1.078796 h -0.341489 v -2.07998 h 0.275519 l 0.05045,0.283281 h 0.0194 q 0.100895,-0.162984 0.279401,-0.240595 0.178505,-0.08149 0.376414,-0.08149 z"
         id="path288" />
      <path
         d="m 102.62855,24.246356 q -0.27552,0 -0.49283,-0.112537 -0.21343,-0.112536 -0.33761,-0.34925 -0.12029,-0.236714 -0.12029,-0.605367 0,-0.384176 0.12806,-0.62477 0.12805,-0.240595 0.34537,-0.353131 0.22119,-0.112537 0.50059,-0.112537 0.1591,0 0.30656,0.03492 0.14746,0.03105 0.2406,0.07761 l -0.10478,0.28328 q -0.0931,-0.03492 -0.21731,-0.06597 -0.12418,-0.03104 -0.23283,-0.03104 -0.61313,0 -0.61313,0.787754 0,0.376414 0.14746,0.578204 0.15134,0.197908 0.44626,0.197908 0.17075,0 0.29881,-0.03493 0.13194,-0.03493 0.24059,-0.08537 v 0.302683 q -0.10477,0.05433 -0.23283,0.08149 -0.12418,0.03104 -0.30269,0.03104 z"
         id="path290" />
      <path
         d="m 105.46525,23.163679 q 0,0.516115 -0.26388,0.799396 -0.26,0.283281 -0.70626,0.283281 -0.27552,0 -0.49284,-0.124178 -0.21343,-0.128059 -0.3376,-0.368653 -0.12418,-0.244476 -0.12418,-0.589846 0,-0.516114 0.26,-0.795514 0.25999,-0.279401 0.70626,-0.279401 0.28328,0 0.49671,0.128059 0.21731,0.124178 0.33761,0.364772 0.12418,0.236715 0.12418,0.582084 z m -1.57163,0 q 0,0.368654 0.14358,0.585965 0.14746,0.213431 0.46567,0.213431 0.31432,0 0.46178,-0.213431 0.14746,-0.217311 0.14746,-0.585965 0,-0.368653 -0.14746,-0.578203 -0.14746,-0.20955 -0.46566,-0.20955 -0.31821,0 -0.46179,0.20955 -0.14358,0.20955 -0.14358,0.578203 z"
         id="path292" />
      <path
         d="m 106.74194,24.246356 q -0.38805,0 -0.62089,-0.267759 -0.23283,-0.271639 -0.23283,-0.807156 0,-0.535518 0.23283,-0.807157 0.23672,-0.27552 0.62477,-0.27552 0.2406,0 0.39194,0.08925 0.15522,0.08925 0.25224,0.217312 h 0.0233 q -0.004,-0.05045 -0.0155,-0.147462 -0.008,-0.100894 -0.008,-0.159103 v -0.830439 h 0.34149 v 2.949225 h -0.27552 l -0.0504,-0.2794 H 107.39 q -0.0931,0.131939 -0.24836,0.225072 -0.15522,0.09313 -0.3997,0.09313 z m 0.0543,-0.283281 q 0.32985,0 0.46179,-0.178506 0.13582,-0.182386 0.13582,-0.547159 v -0.06209 q 0,-0.388056 -0.12806,-0.593726 -0.12806,-0.20955 -0.47343,-0.20955 -0.27552,0 -0.41522,0.221192 -0.13582,0.217311 -0.13582,0.585965 0,0.372533 0.13582,0.578203 0.1397,0.20567 0.4191,0.20567 z"
         id="path294" />
      <path
         d="m 109.19446,22.088764 q 0.26775,0 0.4579,0.116417 0.19403,0.116417 0.29492,0.329848 0.10478,0.20955 0.10478,0.492831 v 0.20567 h -1.42417 q 0.008,0.35313 0.17851,0.539397 0.17463,0.182387 0.48507,0.182387 0.19791,0 0.34925,-0.03493 0.15522,-0.03881 0.31821,-0.108656 v 0.298803 q -0.15911,0.06985 -0.31433,0.100895 -0.15522,0.03492 -0.36865,0.03492 -0.29492,0 -0.52388,-0.120298 -0.22507,-0.120297 -0.35313,-0.357011 -0.12418,-0.240595 -0.12418,-0.585965 0,-0.341489 0.11254,-0.585964 0.11642,-0.244476 0.32209,-0.376415 0.20955,-0.131939 0.48507,-0.131939 z m -0.004,0.279401 q -0.24448,0 -0.38806,0.159103 -0.1397,0.155222 -0.16686,0.434622 h 1.05939 q -0.004,-0.263878 -0.12418,-0.426861 -0.1203,-0.166864 -0.38029,-0.166864 z"
         id="path296" />
      <path
         d="m 110.52937,23.998 q 0,-0.143581 0.0699,-0.201789 0.0699,-0.05821 0.16686,-0.05821 0.1009,0 0.17075,0.05821 0.0737,0.05821 0.0737,0.201789 0,0.1397 -0.0737,0.201789 -0.0699,0.06209 -0.17075,0.06209 -0.097,0 -0.16686,-0.06209 -0.0699,-0.06209 -0.0699,-0.201789 z"
         id="path298" />
    </g>
  </g>
</svg>
